<?xml version="1.0" encoding="utf-8"?>
<!-- Generator: Adobe Illustrator 22.0.0, SVG Export Plug-In . SVG Version: 6.00 Build 0)  -->
<svg version="1.1" id="图层_1" xmlns="http://www.w3.org/2000/svg" xmlns:xlink="http://www.w3.org/1999/xlink" x="0px" y="0px"
	 viewBox="0 0 24 24" style="enable-background:new 0 0 24 24;" xml:space="preserve">
<style type="text/css">
	.st0{fill:#FF8800;}
</style>
<title>Authy</title>
<path class="st0" d="M12,0C5.4,0,0,5.4,0,12s5.4,12,12,12s12-5.4,12-12S18.6,0,12,0z M15.4,5.3c0.3,0,0.6,0.1,0.8,0.3l2.9,2.9
	c2.1,2,2.1,5.4,0.1,7.4c0,0,0,0,0,0.1l0,0l0,0c0,0,0,0-0.1,0c-2.1,2-5.4,1.9-7.5-0.1l-2.9-2.9c-0.4-0.4-0.4-1.1,0-1.5c0,0,0,0,0,0
	c0.4-0.4,1.1-0.4,1.5,0c0,0,0,0,0,0l2.9,2.9c1.3,1.3,3.3,1.3,4.5,0c1.2-1.3,1.2-3.3,0-4.5l-2.9-2.9c-0.4-0.4-0.4-1.1,0-1.5
	c0,0,0,0,0,0C14.9,5.4,15.1,5.3,15.4,5.3L15.4,5.3z M8.8,6.4c1.4,0,2.7,0.6,3.7,1.6l2.9,2.9c0.4,0.4,0.4,1.1,0,1.5
	c-0.4,0.4-1.1,0.4-1.5,0L11,9.5c-1.3-1.2-3.3-1.3-4.6,0c-1.2,1.3-1.2,3.3,0,4.5l2.9,2.9c0.4,0.4,0.4,1.1,0,1.5
	c-0.4,0.4-1.1,0.4-1.5,0c0,0,0,0,0,0l-2.9-2.9C2.9,13.4,2.9,10.1,4.8,8c0,0,0,0,0-0.1l0,0l0,0c0,0,0,0,0.1,0C6,6.9,7.4,6.4,8.8,6.4
	L8.8,6.4z"/>
</svg>
